<svg xmlns="http://www.w3.org/2000/svg" viewBox="0 0 705.11 884.72"><defs><style>.cls-1{fill:#fff;}</style></defs><g id="Layer_2" data-name="Layer 2"><g id="Layer_1-2" data-name="Layer 1"><path class="cls-1" d="M0,748.08V136.64C0,47.27,47.27,0,135.35,0H333.44c53.71,0,83.35,8.59,119,44.69L660,255.23c37,37.39,45.11,65.31,45.11,123.75v369.1c0,88.95-46.83,136.64-135.35,136.64H135.35C46.84,884.72,0,837.46,0,748.08Zm560.74,48.56c37.81,0,56.29-19.77,56.29-55.86V394.88H405.19c-61.87,0-92.38-30.08-92.38-92.38V88.09H144.37c-37.81,0-56.28,19.76-56.28,55.42V740.78c0,36.09,18.47,55.86,55.85,55.86ZM390.58,586.52,387.15,648l29.64-31.36,27.93-28.36c5.59-7.31,15.47-11.6,24.93-11.6,19.33,0,33.94,13.75,33.94,32.65,0,10.74-3.87,18.48-12,25.78L382,735.19c-9.88,8.59-18.48,13.32-29.65,13.32-10.74,0-19.33-4.73-29.22-13.32L213.55,635.07c-8.16-7.3-12-15-12-25.78,0-18.9,14.18-32.65,33.95-32.65a33.38,33.38,0,0,1,24.92,11.6l27.93,28.36L318,648l-3.44-61.44V474.37c0-20.62,17.19-35.66,37.81-35.66,21.06,0,38.24,15,38.24,35.66ZM607.14,319.69,388.43,98V294.76c0,17.19,7.31,24.93,24.5,24.93Z"/></g></g></svg>