<svg width="72px" xmlns="http://www.w3.org/2000/svg" viewBox="0 0 218.3 217.1"><defs><style>.cls-1{fill:#fff;}</style></defs><g id="Layer_2" data-name="Layer 2"><g id="Layer_1-2" data-name="Layer 1"><path class="cls-1" d="M135.7,115.7l52.2-45.8A54.71,54.71,0,0,0,189,58.4a58.35,58.35,0,0,0-106.5-33L73.8,70.5,83.9,92.1Z"/><path class="cls-1" d="M81.3,100.9l-51,46a56.62,56.62,0,0,0-1.1,11.7,58.58,58.58,0,0,0,107,32.9l8.6-44.9-11.5-22Z"/><path class="cls-1" d="M65.5,65.7l7.8-40.3A28,28,0,0,0,30,57.3Z"/><path class="cls-1" d="M65.9,75l-39-9.2a39.1,39.1,0,0,0-1.7,73.7L75,94.5Z"/><path class="cls-1" d="M153,151.3l-7.8,40.2a28,28,0,0,0,43.2-31.9Z"/><path class="cls-1" d="M193.1,77.4l-51,44.7L152.4,142l39,9.1a39.1,39.1,0,0,0,1.7-73.7Z"/></g></g></svg>