<svg width="100px" xmlns="http://www.w3.org/2000/svg" viewBox="0 0 32.79 26.38"><defs><style>.cls-1{fill:#fff;}</style></defs><g id="Layer_2" data-name="Layer 2"><g id="Layer_1-2" data-name="Layer 1"><path class="cls-1" d="M11.48,7.62A7.08,7.08,0,0,1,20.4,7l4-4A12.74,12.74,0,0,0,4.18,8.79a9.56,9.56,0,0,1,7.3-1.17Z"/><path class="cls-1" d="M28.71,9.45A12.72,12.72,0,0,0,25.25,3.6a5.08,5.08,0,0,0-.41-.39l-.05.06L20.84,7.21l.06,0a6.39,6.39,0,0,1,.54.5,7.06,7.06,0,0,1,2,5.09v.71a3.56,3.56,0,1,1,0,7.12H16.82v5.7h6.63A9.26,9.26,0,0,0,28.71,9.45Z"/><path class="cls-1" d="M15.67,20.64H9.2a3.74,3.74,0,0,1-.93-.14L4,24.76A9.22,9.22,0,0,0,9.2,26.34h7.12v-5.7Z"/><path class="cls-1" d="M7.74,20.32A5.66,5.66,0,0,1,7.15,20a3.56,3.56,0,1,1,5.3-4.37l4.13-4.13a9.26,9.26,0,0,0-4.95-3.31L11,8A9.83,9.83,0,0,0,9.2,7.85,9.21,9.21,0,0,0,4.12,9.41a9,9,0,0,0-.85.64,9.23,9.23,0,0,0-.07,14c.14.12.27.25.41.36h0l4.12-4.12Z"/></g></g></svg>