<svg width="65px"  xmlns="http://www.w3.org/2000/svg" viewBox="0 0 2222 2496.66"><defs><style>.cls-1{fill:#fff;fill-rule:evenodd;}</style></defs><g id="Layer_2" data-name="Layer 2"><g id="Layer_1-2" data-name="Layer 1"><path class="cls-1" d="M1324.31,286.11l513.37,296.41a224.12,224.12,0,0,1,50.5-40c106.47-61.21,242.27-24.87,304.11,81.61,61.21,106.47,24.87,242.26-81.6,304.11a222.79,222.79,0,0,1-59.3,23.6v593a223.22,223.22,0,0,1,58.66,23.46c107.11,61.84,143.45,197.64,81.61,304.12-61.21,106.46-197.65,142.8-304.12,81.6a221,221,0,0,1-55-44.67L1322.27,2204a223.05,223.05,0,0,1,11.24,70.13c0,122.41-99.46,222.51-222.51,222.51a222.79,222.79,0,0,1-213.5-285.47L384.27,1914.87a224.27,224.27,0,0,1-49.8,39.23C227.36,2015.3,91.56,1979,30.35,1872.5S5.49,1630.22,112,1568.38a222.9,222.9,0,0,1,58.66-23.47v-593a222.86,222.86,0,0,1-59.29-23.6C4.85,867.07-31.5,730.64,29.71,624.17s197.64-142.82,304.11-81.61a224,224,0,0,1,50.26,39.71L897.59,285.78a222.51,222.51,0,1,1,426.72.33Zm-53.48,91.33,514.59,297.1a222.28,222.28,0,0,0,160.14,276.82v593.78c-2.89.7-5.76,1.48-8.62,2.29L1264.85,383.38c2-1.94,4-3.92,6-5.94Zm-313.54,6.07-672.08,1164q-4.36-1.26-8.77-2.34V951.36A222.29,222.29,0,0,0,436.5,674.21l514.44-297q3.1,3.22,6.35,6.31Zm215.88,52.73L1845.1,1600a223.34,223.34,0,0,0-62.62,108.63H439.54A221.51,221.51,0,0,0,377,1600.3L1049,436.29a224.69,224.69,0,0,0,124.15-.05Zm102.38,1688,511.25-295.18q-2.29-7.23-4.1-14.6H439.26q-1.08,4.33-2.31,8.61L950.7,2119.71a222.77,222.77,0,0,1,324.85,4.54Z"/></g></g></svg>