<svg xmlns="http://www.w3.org/2000/svg" viewBox="0 0 705.11 705.11"><defs><style>.cls-1{fill:#fff;}</style></defs><g id="Layer_2" data-name="Layer 2"><g id="Layer_1-2" data-name="Layer 1"><path class="cls-1" d="M259.75,371.71a74.08,74.08,0,0,0-74.07,74.07V631.05a74.07,74.07,0,0,0,148.13,0V445.78a74.12,74.12,0,0,0-74.06-74.07Z"/><path class="cls-1" d="M.5,445.78a74.13,74.13,0,0,0,148.25,0V371.65H74.62A74.14,74.14,0,0,0,.5,445.78Z"/><path class="cls-1" d="M259.83,0h-.08a74.13,74.13,0,1,0,0,148.25h74.06V74A74,74,0,0,0,259.83,0Z"/><path class="cls-1" d="M74.12,334.08H259.75a74.13,74.13,0,0,0,0-148.25H74.12a74.13,74.13,0,0,0,0,148.25Z"/><path class="cls-1" d="M630.34,185.8a74,74,0,0,0-74,74v74.27h74.07a74.13,74.13,0,0,0,0-148.25Z"/><path class="cls-1" d="M371.33,74.12V260a74.07,74.07,0,1,0,148.13,0V74.12a74.07,74.07,0,0,0-148.13,0Z"/><path class="cls-1" d="M519.43,631a74.08,74.08,0,0,0-74.06-74.07H371.3v74.13A74.07,74.07,0,0,0,519.43,631Z"/><path class="cls-1" d="M631,371.65H445.37a74.13,74.13,0,1,0,0,148.25H631a74.13,74.13,0,0,0,0-148.25Z"/></g></g></svg>