<svg width="71px" xmlns="http://www.w3.org/2000/svg" viewBox="0 0 501.49 507.03"><defs><style>.cls-1{fill:#fff;}</style></defs><g id="Layer_2" data-name="Layer 2"><g id="Layer_1-2" data-name="Layer 1"><path id="path1948" class="cls-1" d="M247.76,0A345.12,345.12,0,0,0,190,4.94c-51.19,9-60.48,28-60.48,62.88v46.1h121v15.37H84.08c-35.15,0-65.94,21.13-75.56,61.32-11.11,46.08-11.61,74.83,0,122.94,8.6,35.81,29.13,61.32,64.28,61.32h41.59V319.6c0-39.92,34.55-75.14,75.57-75.14H310.78c33.63,0,60.48-27.69,60.48-61.46V67.82c0-32.78-27.66-57.41-60.48-62.88A377.84,377.84,0,0,0,247.76,0ZM182.35,37.08a23.05,23.05,0,1,1-22.7,23.12A22.95,22.95,0,0,1,182.35,37.08Z"/><path id="path1950" class="cls-1" d="M386.34,129.28V183c0,41.64-35.3,76.69-75.56,76.69H190c-33.1,0-60.48,28.32-60.48,61.47V436.34c0,32.78,28.5,52.07,60.48,61.47,38.29,11.25,75,13.3,120.82,0,30.45-8.82,60.48-26.57,60.48-61.47v-46.1H250.44V374.87h181.3c35.15,0,48.26-24.52,60.48-61.32,12.63-37.9,12.09-74.34,0-122.94-8.69-35-25.28-61.32-60.48-61.32h-45.4ZM318.39,421a23.05,23.05,0,1,1-22.69,23A22.83,22.83,0,0,1,318.39,421Z"/></g></g></svg>