<svg width="81px" xmlns="http://www.w3.org/2000/svg" viewBox="0 0 2206.51 1963.17"><defs><style>.cls-1{fill:#fff;}</style></defs><g id="Layer_2" data-name="Layer 2"><g id="Layer_1-2" data-name="Layer 1"><path class="cls-1" d="M1814.2,636.3h0q-35.22-12.09-71-22.38,5.94-24.12,11-48.45c53.76-261,18.61-471.27-101.45-540.49-115.1-66.38-303.35,2.84-493.48,168.29q-28.11,24.51-54.94,50.42-18-17.22-36.56-33.77C868.46,33,668.73-41.56,548.81,27.87c-115,66.56-149.06,264.24-100.65,511.6q7.21,36.74,16.3,73.08c-28.26,8-55.55,16.58-81.66,25.68C149.19,719.67,0,847.32,0,979.72c0,136.75,160.15,273.91,403.48,357.08q29.59,10.07,59.66,18.65-9.76,39.13-17.33,78.77c-46.15,243.06-10.11,436.05,104.59,502.21,118.46,68.31,317.28-1.91,510.88-171.14q23-20.07,46-42.44,29.06,28,59.64,54.42c187.53,161.38,372.74,226.54,487.34,160.2,118.35-68.51,156.81-275.83,106.87-528.08q-5.72-28.91-13.24-59,21-6.18,41-12.81c253-83.81,417.53-219.3,417.53-357.88C2206.51,846.85,2052.51,718.33,1814.2,636.3ZM1221.1,264.38C1384,122.61,1536.25,66.63,1605.63,106.64c73.88,42.62,102.62,214.46,56.2,439.81q-4.57,22-9.93,43.86c-91.54-21.12-190.94-36.84-295-46.61-60.63-86.33-123.45-164.83-186.52-232.78Q1195.16,287,1221.1,264.38ZM651.51,1092.82q29.93,57.81,62.55,114.18,33.29,57.46,69.28,113.31c-72.27-8.06-140.42-19-203.35-32.69C599.47,1224.71,623.47,1159.32,651.51,1092.82Zm-.11-221.69C624,806,600.46,742,581.28,680.2c63-14.09,130.1-25.6,200.05-34.34Q746.2,700.64,713.68,757T651.4,871.13ZM701.5,982q43.57-90.68,93.86-177.89v0Q845.6,717,902.35,633.8c65.62-5,132.9-7.56,200.91-7.56,68.32,0,135.69,2.62,201.3,7.62q56.13,83,106.31,169.74,50.43,87,95.12,177-44.21,91-94.81,178.6h0q-50.13,87.11-105.85,170.8c-65.47,4.67-133.12,7.09-202.06,7.09-68.66,0-135.46-2.14-199.78-6.31q-57.13-83.46-107.84-171.06Q745.21,1072.7,701.5,982Zm791.33,224.35q33.29-57.73,64-116.91h0c29.49,67.23,54.35,132.26,74.1,194.11-64,14.59-133.05,26.35-205.83,35.08Q1460.07,1263.17,1492.83,1206.34Zm63.09-335.14q-30.59-58-63.47-114.82h0q-32.35-55.89-67.1-110.35c70.41,8.89,137.86,20.71,201.19,35.17C1607.53,742.14,1583.83,805.87,1555.92,871.2ZM1104.31,378.33c43.47,47.1,87,99.69,129.85,156.75q-130.32-6.17-260.79-.06C1016.24,478.49,1060.15,426,1104.31,378.33ZM596,109.44c73.83-42.73,237.05,18.21,409.09,171q16.5,14.66,33.11,30.57c-64.1,68.83-127.45,147.2-188,232.61-103.78,9.61-203.12,25.06-294.44,45.76q-8.45-33.8-15.17-68h0C499.19,309.43,526.73,149.56,596,109.44ZM488.44,1264.65Q461,1256.79,434,1247.6c-107.6-36.78-196.45-84.57-257.36-136.71-54.72-46.88-82.36-93.41-82.36-131.17,0-80.34,119.79-182.82,319.58-252.48q37.62-13.05,75.94-23.9C517.39,793.16,553.61,887.06,597.32,982,553,1078.39,516.31,1173.78,488.44,1264.65Zm510.82,429.66c-85.62,74.84-171.4,127.92-247,154.63h0c-67.93,24-122,24.68-154.74,5.82-69.61-40.13-98.54-195.11-59.07-403q7-36.84,16.11-73.26c90.38,20,190.42,34.37,297.35,43,61,85.9,125,164.86,189.4,234Q1020.75,1675.48,999.26,1694.31Zm107.66-106.54c-44.68-48.21-89.24-101.53-132.76-158.88q63.36,2.49,129.1,2.5,67.46,0,133.19-3C1193.49,1486.83,1150.1,1540.22,1106.92,1587.77Zm572.4,131.15c-13.15,70.83-39.57,118.06-72.25,137-69.54,40.26-218.25-12.07-378.61-150.07q-27.59-23.73-55.49-50.58c62.17-68,124.31-147.07,185-234.85,106.68-9.47,207.45-24.94,298.85-46.07q6.74,27.26,11.94,53.38h0C1690.79,1539.24,1693.94,1640.08,1679.32,1718.92Zm80-470.79h0q-18.09,6-37.06,11.59c-27.93-88.41-65.62-182.42-111.73-279.53,44-94.82,80.24-187.62,107.39-275.46,22.56,6.54,44.48,13.43,65.59,20.7,204.19,70.28,328.74,174.22,328.74,254.29C2112.26,1065,1977.74,1175.76,1759.34,1248.13Z"/><path class="cls-1" d="M1103.26,1176.76c108.82,0,197-88.22,197-197s-88.21-197-197-197-197,88.22-197,197S994.44,1176.76,1103.26,1176.76Z"/></g></g></svg>