<svg width="68px" xmlns="http://www.w3.org/2000/svg" viewBox="0 0 102.4 126.2"><defs><style>.cls-1{fill:#fff;}</style></defs><g id="Layer_2" data-name="Layer 2"><g id="Layer_1-2" data-name="Layer 1"><circle class="cls-1" cx="85.9" cy="15.9" r="2.6"/><polygon class="cls-1" points="102.4 27 93.8 18.7 87 27 102.4 27"/><path class="cls-1" d="M89.2,40.9S85.9,24.3,64.3,28.8c-2.2-7.5-1.8-13,3-18.1C73.8,3.8,84,7.6,84,7.6V1.9A25.19,25.19,0,0,0,73.2,0C59.3,0,51.6,10.4,48.3,17.4L9.2,89.3l11-2.1L0,126.2l14.1-2.5L24.9,93C55.5,93,94.7,82,89.2,40.9ZM75.6,46.7c-.1.5-.1,1-.2,1.5a11.27,11.27,0,0,1-.3,1.8c-.1.6-.3,1.3-.4,2s-.4,1.4-.6,2.2-.5,1.5-.8,2.4-.6,1.6-1,2.5l-.6,1.2-.3.6-.3.6c-.2.4-.5.8-.7,1.3s-.5.8-.8,1.2c-.1.2-.3.4-.4.6l-.4.6-.9,1.2a22.91,22.91,0,0,1-2.1,2.3c-.7.8-1.5,1.4-2.3,2.2l-1.2,1a14.63,14.63,0,0,1-1.3.9,58.4,58.4,0,0,1-5.3,3.3c-1.8.9-3.7,1.8-5.5,2.5s-3.6,1.3-5.3,1.8-3,.91-4.51,1.22l-.29.08c-3,.8-5.5,1.4-7.3,1.8s-2.8.6-2.8.6a18.69,18.69,0,0,0,2.6-.8c1.8-.3,4.4-.9,7.4-1.6l.39-.08c1.42-.39,2.92-.86,4.51-1.42a55.46,55.46,0,0,0,5.2-2,44.34,44.34,0,0,0,5.4-2.6,34.8,34.8,0,0,0,5.1-3.4,10.59,10.59,0,0,0,1.2-1l1.2-1c.7-.7,1.5-1.4,2.2-2.2a21.1,21.1,0,0,0,1.9-2.3l.9-1.2.4-.6.4-.6c.2-.4.5-.8.7-1.2a7.46,7.46,0,0,1,.7-1.2l.3-.6.3-.6a6.12,6.12,0,0,0,.5-1.2l.9-2.4c.2-.8.5-1.6.7-2.3s.3-1.5.5-2.1.2-1.3.3-2a11.14,11.14,0,0,0,.2-1.7c.1-.5.1-1,.2-1.5.1-1.8.1-2.8.1-2.8l1.6.1S75.7,44.9,75.6,46.7Z"/></g></g></svg>